{"glyphs":{":":{"x_min":0,"x_max":178,"ha":178,"o":"m 7 31 l 13 116 l 118 110 l 98 5 z m 46 375 l 53 469 l 169 462 l 147 346 z"},"$":{"x_min":0,"x_max":641,"ha":641,"o":"m 636 286 q 638 229 621 182 q 604 135 572 100 q 539 64 492 40 q 446 15 391 2 l 391 -98 l 200 -105 l 226 -11 q 168 -6 110 12 q 52 30 5 53 l 81 266 q 96 260 117 250 q 138 241 162 233 q 186 225 212 219 q 237 213 262 214 q 299 216 324 227 q 350 238 349 264 q 348 281 332 290 q 316 299 292 308 q 277 312 253 319 q 229 326 201 338 q 173 350 144 367 q 115 384 92 408 q 68 432 53 464 q 38 496 37 536 q 35 593 52 640 q 70 688 101 724 q 132 760 176 785 q 219 810 270 823 l 270 921 l 461 928 l 436 835 q 481 832 524 823 q 567 814 605 798 l 546 567 q 506 584 473 596 q 440 607 396 613 q 383 615 362 615 q 341 615 320 611 q 299 607 284 597 q 269 587 268 569 q 268 561 276 556 q 283 552 294 549 q 304 546 316 544 q 327 543 333 542 q 362 536 378 532 q 395 528 395 528 q 423 522 449 511 q 480 498 512 480 q 545 462 572 436 q 598 409 616 372 q 634 336 636 286 z"},"?":{"x_min":0,"x_max":725,"ha":725,"o":"m 358 -26 q 327 -37 297 -38 q 267 -39 242 -32 q 217 -25 198 -10 q 180 5 173 26 q 166 47 172 70 q 177 93 192 114 q 208 135 232 152 q 257 169 288 180 q 319 191 349 192 q 379 193 404 186 q 429 179 447 164 q 465 149 473 128 q 480 107 474 84 q 469 61 454 40 q 438 19 414 2 q 389 -16 358 -26 z m 1 735 q 102 831 188 881 q 275 931 344 946 q 414 962 470 953 q 526 944 566 922 q 606 899 633 873 q 660 847 672 828 q 685 810 686 809 q 721 747 716 692 q 712 637 682 588 q 651 539 601 496 q 551 453 494 414 q 437 375 380 340 q 324 306 280 274 q 236 243 212 214 q 188 185 196 158 l 32 285 q 23 310 38 339 q 54 368 84 399 q 114 430 155 462 q 196 493 240 524 q 283 555 324 584 q 365 612 396 636 q 426 660 441 679 q 456 698 448 709 q 440 720 422 719 q 404 718 380 709 q 355 700 326 685 q 298 670 270 652 q 242 633 216 613 q 190 593 171 576 z"},"'":{"x_min":0,"x_max":255,"ha":255,"o":"m 215 922 l 96 769 l 54 783 l 138 985 z"},"=":{"x_min":0,"x_max":693,"ha":693,"o":"m 22 213 l 665 236 l 646 28 l 3 24 z m 45 520 l 688 543 l 669 336 l 27 331 z"},"a":{"x_min":0,"x_max":603,"ha":603,"o":"m 349 68 l 347 68 q 320 30 278 15 q 237 0 189 0 q 149 0 113 14 q 77 29 50 56 q 23 83 7 121 q -9 159 -9 206 q -9 247 7 282 q 23 316 50 342 q 78 367 116 382 q 153 396 197 396 q 243 396 274 382 q 306 369 328 352 l 328 382 q 328 428 298 443 q 268 458 220 458 q 176 458 138 449 q 100 440 61 428 l 100 587 q 148 601 200 606 q 252 612 306 612 q 355 612 402 600 q 449 589 484 563 q 520 537 541 496 q 562 455 561 395 l 550 17 l 349 0 z m 222 253 q 188 248 166 230 q 144 211 147 188 q 151 165 176 154 q 200 142 239 148 q 278 154 297 173 q 316 192 312 214 q 309 233 286 246 q 264 260 222 253 z"},"L":{"x_min":0,"x_max":560,"ha":560,"o":"m 40 782 l 341 824 l 315 261 l 560 312 l 572 31 l 47 -22 z"},"3":{"x_min":0,"x_max":638,"ha":638,"o":"m 502 456 q 568 417 598 368 q 628 320 634 274 q 640 227 632 186 q 624 145 614 122 q 604 100 603 98 q 603 98 590 78 q 576 59 546 36 q 517 12 470 -6 q 422 -25 354 -22 q 287 -20 198 12 q 108 43 -5 119 l 142 329 q 214 277 259 260 q 304 244 329 246 q 354 247 363 256 q 372 266 372 266 q 372 267 376 278 q 380 288 378 304 q 376 320 362 334 q 347 348 311 356 q 275 363 211 357 l 222 528 q 290 522 318 532 q 347 541 354 556 q 360 570 354 582 q 348 595 348 595 q 348 595 338 605 q 327 615 302 618 q 276 620 232 608 q 189 595 124 550 l 26 732 q 124 801 208 824 q 292 848 355 844 q 418 839 464 820 q 509 800 530 782 q 552 765 554 763 q 555 762 569 744 q 583 727 598 695 q 612 663 614 624 q 615 585 590 541 q 566 497 502 456 z"},";":{"x_min":0,"x_max":209,"ha":209,"o":"m 149 53 l 30 -101 l -12 -87 l 72 116 z m 85 194 l 91 279 l 196 273 l 177 168 z"},"J":{"x_min":0,"x_max":581,"ha":581,"o":"m 536 826 q 542 666 544 556 q 547 445 548 380 q 548 314 546 278 q 545 243 544 232 q 543 222 543 222 q 537 197 522 164 q 508 131 484 98 q 459 65 424 36 q 389 7 342 -9 q 295 -25 236 -24 q 177 -23 105 4 q 105 4 84 16 q 63 27 40 58 q 17 88 2 141 q -13 194 -2 277 l 218 347 q 208 295 208 264 q 209 234 214 220 q 220 207 228 204 q 236 201 242 203 q 247 205 248 205 q 249 206 258 214 q 267 222 276 243 q 285 264 283 297 l 250 776 z"},"V":{"x_min":0,"x_max":748,"ha":748,"o":"m 237 836 l 384 484 l 555 828 l 804 684 l 364 -71 l -48 668 z"},"7":{"x_min":0,"x_max":539,"ha":539,"o":"m 560 825 l 471 519 l 536 521 l 504 339 l 433 336 l 351 -4 l 76 28 l 170 328 l 90 325 l 101 503 l 226 510 l 265 605 l 6 574 l -8 794 z"},"S":{"x_min":0,"x_max":591,"ha":591,"o":"m 422 502 q 453 488 486 470 q 518 452 544 426 q 571 400 588 364 q 606 327 608 277 q 611 206 585 152 q 559 97 512 60 q 464 22 398 2 q 332 -19 256 -22 q 221 -23 184 -18 q 147 -14 111 -5 q 75 4 41 16 q 7 29 -23 43 l 53 257 q 68 251 89 242 q 110 232 134 224 q 158 216 184 210 q 210 204 235 205 q 272 207 298 218 q 323 229 322 255 q 321 272 304 281 q 288 290 265 299 q 250 303 226 310 q 201 317 173 329 q 145 341 116 358 q 88 375 64 399 q 41 423 26 454 q 10 486 9 527 q 7 597 33 652 q 59 706 104 744 q 149 783 209 804 q 269 824 337 827 q 400 830 462 820 q 524 811 578 789 l 519 558 q 479 575 446 586 q 413 598 369 604 q 356 606 334 606 q 313 606 292 602 q 272 597 257 587 q 242 577 241 559 q 241 551 248 546 q 256 542 266 540 q 277 537 288 536 q 299 534 306 533 q 335 527 352 523 q 368 519 368 519 q 396 513 422 502 z"},"Z":{"x_min":0,"x_max":817,"ha":817,"o":"m 33 -31 l 276 558 l -16 539 l 40 801 l 783 825 l 444 262 l 820 308 l 770 17 z"},"x":{"x_min":0,"x_max":557,"ha":557,"o":"m 275 430 l 277 430 l 323 598 l 554 580 l 435 305 l 574 12 l 334 -5 l 277 176 l 275 176 l 217 -5 l -19 12 l 114 305 l -10 580 l 222 598 z"},")":{"x_min":0,"x_max":386,"ha":386,"o":"m 47 -33 q 119 78 156 172 q 192 265 207 333 q 222 401 223 440 q 224 478 224 478 q 224 478 219 514 q 214 551 196 609 q 177 667 140 738 q 103 808 39 876 l 88 911 q 153 855 196 794 q 240 732 264 678 q 289 623 302 576 q 315 530 318 505 q 321 480 321 478 q 321 478 320 435 q 318 392 298 318 q 279 243 232 142 q 186 41 97 -75 z"},"&":{"x_min":0,"x_max":845,"ha":845,"o":"m 565 84 q 508 39 450 18 q 391 -4 319 -9 q 260 -14 203 -6 q 146 1 100 26 q 54 50 24 94 q -6 138 -11 206 q -14 250 -2 287 q 10 324 34 352 q 58 381 91 401 q 124 421 163 432 q 126 461 104 496 q 81 531 77 579 q 72 638 95 682 q 118 726 158 756 q 197 785 248 802 q 298 818 349 822 q 397 826 450 818 q 502 811 546 790 q 591 768 622 730 q 652 692 657 636 q 660 601 651 566 q 642 532 624 502 q 605 472 578 448 q 552 425 520 413 l 598 345 q 633 372 659 406 q 685 441 711 476 l 876 317 l 759 212 l 845 145 l 632 -5 z m 335 594 q 336 577 350 560 q 364 542 379 535 q 388 541 397 548 q 406 556 414 566 q 421 575 425 586 q 429 596 428 607 q 427 624 413 638 q 399 652 381 650 q 359 648 346 632 q 333 616 335 594 z m 292 311 q 276 299 262 284 q 248 269 250 246 q 252 215 274 202 q 297 189 326 192 q 349 194 366 202 q 382 209 401 219 z"},"v":{"x_min":0,"x_max":513,"ha":513,"o":"m 193 603 l 250 208 l 252 208 l 318 603 l 535 586 l 397 9 l 109 -8 l -22 586 z"},"O":{"x_min":0,"x_max":764,"ha":764,"o":"m 639 82 q 603 46 552 19 q 500 -8 441 -22 q 382 -36 320 -35 q 257 -34 200 -14 q 142 7 94 49 q 46 91 16 158 q -18 233 -24 307 q -31 381 -15 450 q 1 518 37 579 q 73 640 124 690 q 175 739 238 775 q 302 811 374 830 q 442 847 502 840 q 561 834 609 812 q 657 790 690 758 q 724 727 741 695 q 772 635 788 560 q 803 484 794 403 q 786 322 749 240 q 712 157 639 82 z m 506 508 q 491 540 464 554 q 436 568 404 566 q 372 564 339 548 q 306 531 279 502 q 252 472 234 430 q 217 388 217 337 q 216 289 230 259 q 245 229 268 214 q 290 200 319 198 q 348 197 376 207 q 405 217 430 236 q 455 256 472 282 q 497 321 508 354 q 520 388 522 416 q 525 444 520 467 q 515 490 506 508 z"},"(":{"x_min":0,"x_max":404,"ha":404,"o":"m 356 869 q 284 759 248 665 q 211 571 196 503 q 181 435 180 396 q 179 358 179 358 q 179 358 184 322 q 189 285 208 227 q 226 169 263 98 q 300 28 364 -40 l 315 -75 q 250 -19 206 42 q 163 104 138 158 q 114 213 101 260 q 88 306 85 331 q 82 356 82 358 q 82 358 84 401 q 85 444 104 519 q 124 594 170 694 q 217 795 306 911 z"},"C":{"x_min":0,"x_max":748,"ha":748,"o":"m 718 674 l 543 459 q 489 516 448 532 q 408 548 378 540 q 349 531 329 504 q 309 478 297 450 q 285 423 280 401 q 275 379 275 379 q 275 377 280 353 q 284 329 300 300 q 317 270 348 256 q 378 242 430 260 q 483 278 560 349 l 755 141 q 740 112 703 82 q 666 52 615 27 q 564 2 503 -14 q 442 -31 378 -34 q 315 -36 254 -20 q 192 -4 140 36 q 65 94 29 164 q -7 234 -14 308 q -21 382 -2 456 q 16 530 50 595 q 83 660 128 712 q 174 764 221 795 q 221 795 241 806 q 261 817 296 828 q 331 838 378 842 q 426 847 482 834 q 537 820 598 783 q 658 746 718 674 z"},"W":{"x_min":0,"x_max":985,"ha":985,"o":"m -42 729 l 230 847 l 336 520 l 517 798 l 668 536 l 788 894 l 1018 729 l 770 -6 l 521 249 l 264 -75 z"},"A":{"x_min":0,"x_max":850,"ha":850,"o":"m 395 873 l 900 105 l 586 -14 l 502 126 l 292 119 l 251 -31 l -50 67 z m 344 278 l 463 299 l 413 435 z"},"f":{"x_min":0,"x_max":416,"ha":416,"o":"m 81 404 l 12 404 l 44 576 l 81 576 q 81 630 95 674 q 109 718 138 748 q 166 779 210 796 q 254 813 315 813 q 332 813 346 810 q 359 808 374 806 l 400 640 l 366 640 q 333 640 316 623 q 298 606 298 576 l 384 576 l 384 404 l 298 404 l 304 8 l 80 -10 z"},"Q":{"x_min":0,"x_max":774,"ha":774,"o":"m 738 695 q 767 639 782 570 q 798 501 794 426 q 789 352 761 275 q 733 198 675 126 l 721 81 l 573 -66 l 521 5 q 458 -23 384 -32 q 310 -41 240 -26 q 169 -10 108 34 q 48 79 12 158 q -38 271 -28 380 q -19 488 34 579 q 87 670 176 736 q 264 802 371 830 q 439 847 498 840 q 558 834 606 812 q 654 790 688 758 q 721 727 738 695 z m 214 337 q 214 289 228 259 q 242 229 264 214 q 287 199 316 198 q 344 197 373 207 l 350 238 l 434 361 l 486 310 q 504 343 512 372 q 520 401 520 426 q 521 451 516 471 q 511 491 503 508 q 488 540 460 554 q 433 568 401 566 q 369 564 336 548 q 303 531 276 502 q 249 472 232 430 q 214 388 214 337 z"},"w":{"x_min":0,"x_max":788,"ha":788,"o":"m 259 327 l 316 586 l 473 598 l 532 324 l 534 324 l 593 607 l 811 589 l 657 12 l 450 -4 l 394 275 l 392 275 l 335 12 l 130 -5 l -26 589 l 198 607 l 257 327 z"},"-":{"x_min":0,"x_max":456,"ha":456,"o":"m 75 403 l 392 417 l 382 283 l 66 288 z"},"E":{"x_min":0,"x_max":592,"ha":592,"o":"m 35 774 l 587 815 l 556 562 l 305 551 l 304 503 l 486 516 l 465 341 l 298 328 l 296 273 l 582 300 l 577 24 l 42 -5 z"},"s":{"x_min":0,"x_max":446,"ha":446,"o":"m 14 198 q 41 190 68 185 q 96 180 128 180 q 142 180 158 180 q 173 181 186 184 q 198 186 206 192 q 215 198 215 210 q 215 225 200 232 q 184 240 162 247 q 139 254 112 264 q 85 273 62 292 q 40 310 24 341 q 9 372 9 422 q 9 455 22 487 q 35 519 64 545 q 93 571 139 587 q 185 603 250 603 q 275 603 300 601 q 325 599 348 596 q 370 592 389 588 q 408 585 421 582 l 421 406 q 396 412 372 416 q 348 420 320 420 q 314 420 301 420 q 288 419 275 416 q 262 414 252 408 q 242 402 242 392 q 242 376 258 368 q 274 360 298 353 q 321 346 349 336 q 377 326 400 308 q 424 289 440 258 q 456 227 456 177 q 456 123 432 87 q 409 51 370 30 q 332 8 282 -1 q 232 -10 178 -10 q 136 -10 96 -5 q 55 0 14 11 l 14 198 z"},"l":{"x_min":0,"x_max":299,"ha":299,"o":"m 35 795 l 261 813 l 252 8 l 42 -10 z"},"8":{"x_min":0,"x_max":604,"ha":604,"o":"m 554 421 q 576 385 588 340 q 599 295 593 246 q 587 197 560 148 q 533 98 479 53 q 453 31 416 15 q 378 -1 335 -10 q 292 -18 246 -17 q 201 -16 159 -4 q 117 9 82 34 q 47 59 25 99 q 1 144 -4 188 q -9 232 2 273 q 14 314 40 350 q 65 387 102 417 q 81 436 68 461 q 35 522 41 581 q 47 640 82 689 q 117 738 175 774 q 233 810 304 825 q 349 834 388 830 q 427 827 458 816 q 490 804 512 787 q 535 770 546 752 q 564 723 574 688 q 585 653 584 614 q 582 576 566 536 q 551 496 518 458 q 541 442 554 421 z m 356 631 q 347 649 328 652 q 310 655 292 646 q 273 636 258 616 q 244 595 244 565 q 244 537 256 524 q 268 512 284 512 q 300 511 316 520 q 333 529 343 544 q 362 574 362 595 q 362 617 356 631 z m 341 185 q 367 225 367 253 q 367 281 358 300 q 346 324 322 328 q 297 333 272 320 q 248 308 229 280 q 210 252 210 213 q 210 176 226 160 q 241 143 262 142 q 284 141 306 153 q 328 165 341 185 z"},"e":{"x_min":0,"x_max":572,"ha":572,"o":"m 570 74 q 509 30 445 10 q 381 -9 298 -9 q 230 -9 174 14 q 117 38 76 78 q 35 118 12 172 q -11 225 -11 285 q -11 360 13 419 q 37 478 78 519 q 119 560 174 582 q 228 603 290 603 q 390 603 464 552 q 537 501 573 416 l 274 191 q 285 185 303 183 q 321 181 336 181 q 382 181 414 198 q 445 214 471 237 z m 356 402 q 342 419 326 425 q 309 431 288 431 q 268 431 252 422 q 235 414 223 400 q 211 385 204 367 q 198 349 198 330 q 198 312 200 304 q 203 297 207 289 z"},"b":{"x_min":0,"x_max":640,"ha":640,"o":"m 389 607 q 449 607 499 581 q 549 555 586 512 q 623 470 644 416 q 664 362 664 306 q 664 231 638 173 q 613 115 571 76 q 529 36 474 16 q 418 -5 358 -5 q 312 -5 272 11 q 231 27 196 45 l 196 2 l 38 2 l 32 808 l 263 826 l 254 566 q 285 583 314 595 q 343 607 389 607 z m 371 204 q 395 211 412 224 q 429 236 440 252 q 450 268 453 286 q 456 304 451 322 q 446 340 434 354 q 422 367 404 376 q 387 384 366 386 q 344 387 320 380 q 296 373 278 360 q 261 347 250 331 q 240 315 237 297 q 234 279 239 261 q 244 243 256 230 q 268 216 286 208 q 303 200 325 198 q 347 197 371 204 z"},"%":{"x_min":0,"x_max":748,"ha":748,"o":"m 455 549 q 477 580 487 612 q 497 645 498 676 q 499 708 492 736 q 486 764 474 787 q 468 799 456 810 q 444 822 428 829 q 411 836 392 837 q 372 838 350 830 q 316 817 289 790 q 262 763 247 727 q 232 691 232 649 q 231 607 250 565 q 267 527 296 512 q 324 497 354 498 q 384 499 412 513 q 439 527 455 549 z m 399 712 q 405 698 406 677 q 407 656 395 625 q 389 610 378 600 q 366 590 354 590 q 343 590 334 602 q 324 614 323 641 q 321 671 330 692 q 339 714 352 724 q 364 735 378 732 q 391 730 399 712 z m 693 46 q 715 76 725 108 q 735 141 736 172 q 736 204 730 232 q 723 260 711 283 q 705 295 693 306 q 681 318 665 326 q 649 333 630 334 q 610 335 588 327 q 554 314 526 287 q 499 260 484 224 q 469 188 468 146 q 468 104 488 62 q 505 24 534 9 q 562 -6 592 -5 q 622 -4 650 10 q 677 24 693 46 z m 637 209 q 642 195 644 174 q 645 153 633 121 q 627 106 616 96 q 604 86 592 86 q 581 86 572 98 q 562 110 561 138 q 559 168 568 189 q 577 210 590 220 q 602 231 616 229 q 629 227 637 209 z m 641 839 l 733 815 l 332 -5 l 256 28 z"},"m":{"x_min":0,"x_max":891,"ha":891,"o":"m 654 356 q 654 375 640 387 q 626 399 603 399 q 579 399 565 384 q 551 369 551 353 l 557 11 l 340 -7 l 344 354 q 345 374 330 386 q 315 399 291 399 q 272 399 256 387 q 239 375 240 353 l 250 -8 l 40 10 l 28 579 l 232 597 l 232 505 l 234 505 q 266 548 306 572 q 347 597 404 597 q 451 597 482 582 q 514 568 540 537 q 566 564 599 580 q 632 597 672 597 q 717 597 752 582 q 786 566 810 538 q 833 510 846 472 q 858 435 859 392 l 865 11 l 648 -7 z"},"#":{"x_min":0,"x_max":981,"ha":981,"o":"m 571 637 l 571 657 q 539 655 539 669 l 539 727 l 567 727 l 567 674 q 567 666 585 669 q 602 671 602 677 l 602 727 l 631 727 l 631 681 q 631 668 599 662 l 599 643 z m 421 727 l 448 727 l 448 623 q 448 611 465 617 q 482 620 482 631 l 482 727 l 510 727 l 510 640 q 510 629 498 620 q 486 611 465 604 q 421 590 421 616 z m 356 652 l 384 656 l 384 580 q 384 580 379 580 q 374 579 366 580 q 357 580 347 582 q 337 584 327 588 q 286 605 286 648 q 286 684 325 711 q 334 717 344 722 q 355 726 364 728 q 373 731 378 732 q 384 733 384 733 l 384 718 q 385 718 372 714 q 358 710 346 702 q 314 682 314 650 q 314 619 348 604 l 356 601 z m 884 202 l 842 227 l 856 253 l 861 249 l 850 231 l 862 224 l 873 242 l 877 240 l 867 221 l 883 212 l 894 232 l 898 228 z m 809 173 l 842 145 l 837 140 l 805 168 l 796 159 l 793 161 l 814 186 l 817 183 z m 761 124 l 759 118 q 754 119 749 117 q 743 111 746 106 q 750 102 757 105 l 760 106 q 766 108 771 108 q 776 108 780 103 q 785 98 783 92 q 781 86 776 81 q 764 73 754 81 l 759 86 q 764 80 773 85 q 780 92 775 99 q 773 102 769 102 q 765 102 762 101 l 758 99 q 753 98 748 98 q 744 98 741 102 q 737 107 739 112 q 741 117 746 122 q 753 127 761 124 z m 689 83 l 711 40 l 705 36 l 683 79 z m 608 29 l 633 37 l 628 56 l 633 57 l 648 11 l 642 9 l 635 31 l 610 24 l 617 1 l 610 0 l 596 45 l 602 48 z m 527 7 l 528 -13 l 522 -14 l 517 34 l 525 35 q 538 36 542 33 q 547 30 548 23 q 549 9 530 7 z m 525 30 l 526 13 l 528 13 q 533 13 538 15 q 543 17 542 22 q 541 28 536 29 q 532 30 527 30 z m 452 1 l 427 3 l 419 -7 l 412 -7 l 444 40 l 464 -14 l 457 -13 z m 450 7 l 442 27 l 431 9 z m 350 33 l 359 7 l 351 9 l 343 35 l 341 36 l 334 16 l 328 19 l 344 64 l 352 62 q 355 60 358 58 q 362 56 364 54 q 370 48 367 41 q 363 30 350 33 z m 349 56 l 343 40 l 344 38 q 349 36 354 36 q 360 37 362 43 q 364 48 360 51 q 355 54 350 56 z m 267 77 l 285 65 l 284 64 q 279 56 269 54 q 259 52 249 58 q 239 65 236 76 q 234 86 240 95 q 246 103 257 105 q 268 107 278 101 q 289 93 291 79 l 285 79 q 283 90 275 96 q 267 101 259 100 q 251 98 247 91 q 242 84 244 76 q 245 68 253 63 q 258 59 265 60 q 272 60 276 65 l 264 72 z m 376 287 l 438 311 l 438 554 l 482 573 l 482 329 l 536 351 l 536 596 l 579 613 l 579 255 l 536 240 l 536 314 l 482 293 l 482 219 l 438 201 l 438 274 l 401 259 q 401 259 397 264 q 393 268 376 287 z m 934 679 l 977 679 l 977 457 q 977 402 929 389 l 929 309 l 886 309 l 886 388 q 838 400 838 452 l 838 674 l 880 677 l 880 527 q 890 488 890 442 l 890 433 q 898 427 908 427 q 934 429 934 457 z m 797 361 l 797 304 q 808 328 816 354 q 824 380 827 407 q 828 403 830 400 q 831 397 833 394 q 824 334 794 282 q 764 230 718 192 q 673 153 614 132 q 556 110 491 110 q 445 110 403 120 q 361 131 324 151 q 326 153 326 154 q 327 155 329 157 q 365 138 406 128 q 446 117 491 117 q 541 117 588 130 q 634 144 674 168 q 713 193 744 227 q 775 261 796 302 l 754 297 l 754 355 q 754 366 750 369 q 746 372 735 370 l 699 363 l 699 288 l 656 277 l 656 352 l 619 343 l 594 372 q 594 372 598 373 q 601 374 615 378 q 629 382 656 390 l 656 654 q 658 654 670 654 q 682 654 704 648 q 725 643 744 629 q 797 590 797 520 q 797 462 752 411 q 780 411 791 396 q 795 391 796 384 q 797 378 797 361 z m 715 416 q 754 458 754 511 q 754 542 742 562 q 729 581 717 590 q 709 597 704 600 q 699 602 699 602 l 699 401 q 699 400 704 405 q 710 410 715 416 z m 281 178 l 293 179 q 320 186 320 217 l 320 509 l 363 525 l 363 232 q 363 200 344 175 q 326 150 293 140 q 261 131 243 145 q 225 159 225 191 l 225 484 l 267 493 l 267 199 q 268 184 274 181 q 281 178 281 178 z m 211 197 l 211 174 l 211 169 q 190 189 169 216 q 161 200 149 185 q 189 174 189 136 l 189 118 q 189 93 172 78 q 156 64 129 64 l 62 64 l 62 145 l 28 145 l 7 185 l 62 185 l 62 471 q 62 471 70 468 q 79 466 93 458 q 96 535 128 602 q 161 669 214 719 q 268 769 339 798 q 410 826 491 826 q 595 826 682 780 q 769 733 823 655 l 823 617 q 799 659 764 694 q 729 729 686 754 q 643 779 594 792 q 545 806 491 806 q 413 806 344 778 q 276 749 225 700 q 174 652 144 586 q 114 521 113 446 q 120 441 127 434 q 134 428 142 420 q 145 417 146 415 q 146 422 146 428 q 145 435 145 442 q 145 511 172 572 q 199 632 246 678 q 293 723 356 749 q 419 775 491 775 q 550 775 603 757 q 656 739 700 707 q 743 675 775 632 q 807 588 823 536 l 823 503 q 812 559 782 608 q 752 656 708 692 q 664 727 608 747 q 553 767 491 767 q 421 767 360 742 q 298 716 252 672 q 206 627 180 568 q 153 509 153 442 q 153 422 156 403 q 171 380 180 353 q 189 326 189 297 q 194 287 200 278 q 205 269 211 260 l 211 247 q 198 265 188 282 q 186 258 179 237 q 186 226 194 216 q 202 207 211 197 z m 150 129 q 150 145 133 145 l 101 145 l 101 106 l 133 106 q 150 106 150 123 z m 114 198 q 132 215 141 240 q 150 265 150 292 q 150 329 138 353 q 125 377 114 390 q 109 395 104 399 q 100 403 101 403 l 101 367 q 112 353 122 330 q 133 307 134 273 l 134 272 q 111 314 101 362 l 101 185 z m 491 78 q 560 78 622 100 q 684 123 734 162 q 783 202 816 256 q 850 310 863 373 q 865 372 871 370 l 871 351 l 871 331 l 871 324 q 851 266 814 218 q 778 169 728 134 q 679 98 618 78 q 558 58 491 58 q 430 58 375 75 q 320 92 272 121 q 274 122 275 122 q 277 122 279 123 q 284 125 288 126 q 292 128 296 130 q 339 105 388 92 q 437 78 491 78 z"},",":{"x_min":0,"x_max":237,"ha":237,"o":"m 190 53 l 71 -101 l 29 -87 l 113 116 z"},"n":{"x_min":0,"x_max":591,"ha":591,"o":"m 236 514 l 240 514 q 273 559 308 575 q 342 591 383 591 q 425 591 457 576 q 489 561 511 534 q 533 507 544 471 q 556 435 556 393 l 556 6 l 340 -12 l 343 352 q 344 370 330 382 q 315 394 295 394 q 276 394 260 382 q 245 371 245 351 l 249 -10 l 36 5 l 28 574 l 236 591 z"},"h":{"x_min":0,"x_max":587,"ha":587,"o":"m 248 534 l 250 534 q 275 567 308 582 q 341 596 382 596 q 424 596 456 581 q 489 566 511 539 q 533 512 544 476 q 556 439 555 397 l 549 10 l 338 -8 l 338 357 q 338 374 326 386 q 314 398 294 398 q 275 398 262 386 q 248 375 248 355 l 248 -9 l 38 9 l 31 797 l 255 815 z"},"z":{"x_min":0,"x_max":486,"ha":486,"o":"m 54 580 l 471 580 l 303 211 l 481 211 l 438 3 l -15 3 l 155 372 l 12 372 z"},"B":{"x_min":0,"x_max":689,"ha":689,"o":"m 32 781 q 173 808 264 817 q 356 826 409 826 q 462 825 483 820 q 504 816 504 816 q 504 816 524 806 q 545 797 571 778 q 597 760 620 732 q 644 703 650 666 q 655 628 634 581 q 614 534 553 477 q 637 433 672 382 q 708 332 712 283 q 715 234 696 189 q 678 144 654 110 q 629 76 608 56 q 588 35 588 35 q 587 34 574 26 q 562 19 526 8 q 489 -2 428 -9 q 367 -16 270 -16 q 173 -15 39 0 z m 392 557 q 392 557 392 568 q 393 580 386 590 q 378 601 358 604 q 338 608 298 592 l 294 487 q 325 482 344 492 q 364 503 374 518 q 385 532 388 544 q 392 557 392 557 z m 445 275 q 445 276 444 286 q 442 296 434 310 q 427 323 410 331 q 393 339 362 336 q 332 333 284 310 l 297 205 q 352 200 382 210 q 413 220 426 234 q 440 249 442 262 q 445 275 445 275 z"},"K":{"x_min":0,"x_max":636,"ha":636,"o":"m 678 633 l 399 374 l 645 167 l 505 -43 l 311 140 l 309 13 l 47 -17 l 31 787 l 324 822 l 321 641 l 482 864 z"},"R":{"x_min":0,"x_max":670,"ha":670,"o":"m 692 143 l 537 -32 l 294 147 l 291 -24 l 49 1 l 33 782 q 223 804 311 812 q 399 821 399 821 q 493 831 556 807 q 618 783 650 738 q 683 692 688 632 q 692 571 670 508 q 648 444 600 384 q 553 324 483 280 z m 279 558 l 269 398 q 305 406 332 421 q 358 436 376 453 q 394 470 404 486 q 413 501 415 510 q 415 511 416 521 q 417 531 414 545 q 410 559 396 568 q 383 578 355 578 q 327 577 279 558 z"},"T":{"x_min":0,"x_max":521,"ha":521,"o":"m 518 595 l 398 581 l 398 18 l 114 -17 l 129 554 l -3 541 l 4 787 l 544 833 z"},"P":{"x_min":0,"x_max":640,"ha":640,"o":"m 406 821 q 490 830 548 810 q 607 789 642 749 q 676 709 688 654 q 700 598 690 538 q 680 477 650 416 q 620 354 570 302 q 521 249 454 210 q 386 172 302 156 l 298 -24 l 56 1 l 40 782 q 230 804 318 812 q 406 821 406 821 z m 422 510 q 422 511 423 521 q 424 531 420 545 q 416 559 403 568 q 390 578 362 578 q 333 577 285 558 l 275 398 q 311 406 338 421 q 364 436 382 453 q 400 470 410 486 q 420 501 422 510 z"},"t":{"x_min":0,"x_max":371,"ha":371,"o":"m 329 -7 q 313 -9 298 -10 q 284 -10 267 -10 q 171 -10 118 34 q 64 77 64 175 l 64 412 l 9 411 l 15 584 l 62 584 l 62 650 l 279 748 l 279 584 l 360 596 l 349 412 l 281 412 l 281 237 q 281 207 290 197 q 298 187 328 187 q 341 187 349 188 q 357 189 364 191 l 329 -7 z"},"M":{"x_min":0,"x_max":883,"ha":883,"o":"m 211 865 l 456 556 l 692 800 l 937 126 l 696 -71 l 587 254 l 451 16 l 287 268 l 190 -28 l -43 123 z"},"g":{"x_min":0,"x_max":592,"ha":592,"o":"m 96 16 q 131 4 166 -4 q 202 -12 240 -12 q 256 -12 272 -10 q 288 -8 301 -2 q 314 5 322 16 q 330 28 330 47 q 330 66 320 78 q 311 91 294 98 q 278 106 257 108 q 236 111 214 111 q 188 111 161 104 q 134 96 111 84 l 130 144 q 64 176 28 232 q -9 287 -9 366 q -9 407 6 450 q 22 494 55 530 q 88 566 139 589 q 190 612 261 612 q 297 612 324 607 q 351 602 375 594 l 392 699 l 552 630 l 500 528 q 532 497 548 456 q 565 416 565 370 q 565 307 540 262 q 514 218 464 185 q 562 130 562 19 q 562 -34 539 -76 q 516 -117 474 -145 q 431 -173 372 -188 q 312 -202 239 -202 q 151 -202 93 -187 q 35 -172 -1 -160 z m 289 297 q 323 304 340 325 q 357 346 352 372 q 346 398 322 410 q 297 422 264 415 q 230 407 213 386 q 196 365 201 340 q 206 314 230 302 q 255 289 289 297 z"},"j":{"x_min":0,"x_max":392,"ha":392,"o":"m 335 56 q 335 -6 319 -52 q 303 -99 273 -130 q 243 -161 200 -177 q 158 -193 106 -193 l 59 -193 l 4 -10 l 27 -10 q 72 -10 95 9 q 118 28 118 74 l 118 564 l 335 582 z m 334 652 l 116 635 l 117 818 l 346 828 z"},"i":{"x_min":0,"x_max":305,"ha":305,"o":"m 40 567 l 263 585 l 252 8 l 40 -10 z m 39 820 l 268 830 l 256 654 l 38 638 z"},"y":{"x_min":0,"x_max":502,"ha":502,"o":"m 272 368 l 321 588 l 527 570 l 313 -184 l 87 -166 l 173 69 l -15 561 l 203 588 l 270 368 z"},"@":{"x_min":0,"x_max":782,"ha":782,"o":"m 573 337 q 571 328 568 316 q 566 303 566 292 q 566 282 570 275 q 574 268 586 269 q 600 270 616 286 q 633 302 648 328 q 662 353 672 385 q 682 417 684 451 q 687 517 667 567 q 647 617 609 650 q 571 683 518 700 q 466 717 405 717 q 338 717 284 694 q 229 672 190 631 q 151 590 130 533 q 109 476 109 407 q 109 335 132 278 q 156 220 198 180 q 240 141 298 120 q 355 99 423 99 q 490 99 539 108 q 588 117 614 133 l 598 33 q 570 18 554 10 q 538 2 522 -2 q 505 -5 482 -6 q 458 -7 415 -7 q 329 -7 254 24 q 179 55 123 110 q 67 166 35 242 q 3 317 3 407 q 3 496 34 572 q 66 648 121 704 q 176 760 250 792 q 324 823 409 823 q 479 823 542 801 q 605 779 658 731 q 712 683 744 622 q 777 562 777 487 q 777 421 760 364 q 743 307 711 265 q 673 214 630 192 q 586 171 548 173 q 525 174 506 191 q 488 208 482 233 q 461 210 428 192 q 394 173 346 173 q 311 173 278 188 q 246 204 221 230 q 196 256 182 292 q 167 327 167 367 q 167 415 182 460 q 198 506 226 542 q 254 577 294 598 q 334 619 384 619 q 425 619 457 608 q 489 596 513 562 l 521 596 l 626 596 z m 372 285 q 396 285 414 296 q 432 306 444 323 q 456 340 462 360 q 469 380 471 400 q 477 446 456 474 q 434 502 395 502 q 372 502 353 492 q 334 481 320 464 q 306 446 298 424 q 291 403 291 382 q 291 363 296 346 q 302 328 312 314 q 322 301 337 293 q 352 285 372 285 z"},".":{"x_min":0,"x_max":219,"ha":219,"o":"m 40 31 l 47 116 l 152 110 l 132 5 z"},"p":{"x_min":0,"x_max":639,"ha":639,"o":"m 239 598 l 239 530 q 271 565 306 582 q 340 598 388 598 q 448 598 498 572 q 547 545 582 502 q 616 459 635 404 q 654 350 654 294 q 654 234 634 178 q 614 123 578 80 q 541 37 490 11 q 439 -15 378 -15 q 347 -15 312 -6 q 276 3 248 30 l 254 -169 l 43 -187 l 32 580 z m 375 211 q 420 232 436 270 q 451 308 435 341 q 419 375 380 386 q 342 398 297 377 q 251 355 235 318 q 219 280 236 246 q 244 229 258 218 q 272 206 290 201 q 309 196 330 198 q 352 200 375 211 z"},"X":{"x_min":0,"x_max":806,"ha":806,"o":"m 213 837 l 409 636 l 594 837 l 818 669 l 581 423 l 823 176 l 632 -29 l 405 256 l 223 -38 l -5 153 l 223 409 l -10 669 z"},"Y":{"x_min":0,"x_max":701,"ha":701,"o":"m 155 832 l 332 554 l 524 832 l 769 664 l 464 270 l 461 -18 l 192 18 l 192 312 l -60 664 z"},"c":{"x_min":0,"x_max":528,"ha":528,"o":"m 542 71 q 517 49 488 34 q 460 20 430 11 q 400 2 369 -2 q 338 -5 309 -5 q 241 -5 184 18 q 126 41 84 82 q 41 122 17 176 q -7 231 -7 294 q -7 367 18 426 q 43 484 88 524 q 132 565 193 586 q 254 608 325 608 q 396 608 448 585 q 501 562 537 538 l 405 365 q 391 376 372 383 q 354 390 335 393 q 316 396 298 395 q 281 394 270 388 q 251 378 238 364 q 224 351 216 335 q 209 319 210 300 q 210 282 220 263 q 240 223 277 214 q 314 205 355 225 l 406 251 l 542 71 z"},"!":{"x_min":0,"x_max":774,"ha":774,"o":"m 420 -31 q 389 -20 364 -2 q 340 15 324 36 q 309 57 304 80 q 298 103 306 124 q 313 145 331 160 q 349 175 374 182 q 400 189 430 188 q 460 186 491 176 q 522 165 546 148 q 571 130 586 109 q 602 88 607 65 q 612 42 605 21 q 598 0 580 -14 q 562 -29 536 -36 q 511 -44 481 -43 q 451 -42 420 -31 z m 612 203 q 586 221 552 232 q 519 244 481 247 q 444 250 410 244 q 377 239 349 226 l 402 918 l 698 930 z"},"/":{"x_min":0,"x_max":516,"ha":516,"o":"m 408 839 l 499 815 l 98 -5 l 23 28 z"},"6":{"x_min":0,"x_max":561,"ha":561,"o":"m 509 477 q 570 411 578 342 q 586 273 558 210 q 530 148 475 98 q 420 47 354 18 q 289 -11 222 -12 q 155 -14 104 21 q 103 22 84 38 q 66 54 42 88 q 17 122 0 172 q -18 222 -16 290 q -15 359 18 444 q 51 528 127 632 q 203 735 335 854 l 488 706 q 449 675 416 642 q 382 610 358 583 q 333 556 319 539 q 305 522 305 522 q 337 539 368 540 q 398 540 423 532 q 448 523 468 510 q 488 497 498 488 q 508 478 509 477 z m 313 212 q 346 232 360 265 q 375 298 363 327 q 351 356 318 362 q 286 368 253 349 q 220 329 206 296 q 191 263 203 234 q 215 205 247 199 q 279 193 313 212 z"},"r":{"x_min":0,"x_max":418,"ha":418,"o":"m 230 598 l 230 487 l 232 487 q 258 598 382 598 q 409 598 433 595 l 381 382 q 374 383 366 383 q 359 383 346 383 q 304 383 274 356 q 243 328 243 269 l 243 12 l 33 -6 l 27 580 z"},"2":{"x_min":0,"x_max":674,"ha":674,"o":"m 639 694 q 680 621 668 558 q 656 494 611 439 q 566 384 500 336 q 434 289 367 247 l 638 278 l 632 25 l 39 -5 l 38 148 q 31 173 45 203 q 59 233 86 266 q 113 298 149 332 q 185 365 223 398 q 261 431 296 462 q 332 492 358 518 q 384 543 396 563 q 409 583 401 594 q 389 610 355 601 q 321 592 280 570 q 238 547 196 517 q 153 487 124 461 l -10 654 q 83 742 164 786 q 245 831 310 843 q 376 855 430 844 q 483 833 522 809 q 560 785 587 758 q 614 732 626 714 q 638 695 639 694 z"},"9":{"x_min":0,"x_max":568,"ha":568,"o":"m 57 343 q 11 392 -4 444 q -19 496 -12 546 q -4 595 24 640 q 51 686 90 723 q 130 760 178 786 q 227 813 277 825 q 327 837 375 832 q 423 826 461 799 q 462 798 480 782 q 499 766 524 732 q 548 698 566 648 q 583 598 582 530 q 581 461 548 376 q 515 292 439 188 q 363 85 231 -34 l 77 115 q 116 146 150 178 q 184 211 208 238 q 233 264 247 281 q 261 298 261 298 q 229 281 198 280 q 168 280 143 288 q 118 297 98 310 q 78 323 68 332 q 58 342 57 343 z m 253 608 q 220 588 205 555 q 190 522 203 493 q 215 465 247 458 q 279 452 312 472 q 345 491 360 524 q 375 558 363 586 q 350 615 318 621 q 286 627 253 608 z"}," ":{"x_min":0,"x_max":300,"ha":300,"o":""},"I":{"x_min":0,"x_max":371,"ha":371,"o":"m 342 822 l 301 13 l 38 -17 l 48 787 z"},"H":{"x_min":0,"x_max":721,"ha":721,"o":"m 13 787 l 305 815 l 270 448 l 418 459 l 430 808 l 715 822 l 634 50 l 402 22 l 415 242 l 310 227 l 300 -3 l 51 -8 z"},"4":{"x_min":0,"x_max":603,"ha":603,"o":"m 330 837 l 575 761 l 201 409 l 303 409 l 306 467 l 536 467 l 526 408 l 615 424 l 601 192 l 512 191 l 501 8 l 246 -3 l 264 189 l 16 170 l -5 503 z"},"D":{"x_min":0,"x_max":720,"ha":720,"o":"m 42 782 q 223 817 310 828 q 396 838 396 838 q 480 851 545 832 q 610 812 655 769 q 700 726 724 664 q 748 602 751 531 q 754 460 736 384 q 717 309 676 238 q 634 168 570 108 q 505 47 417 6 q 417 6 400 0 q 382 -5 340 -10 q 299 -14 230 -13 q 161 -12 58 1 z m 300 228 q 357 241 392 268 q 428 294 446 322 q 464 351 472 379 q 479 407 479 423 q 479 440 479 441 q 479 443 476 460 q 473 478 463 502 q 453 526 435 542 q 417 557 386 554 q 355 551 310 515 z"},"0":{"x_min":0,"x_max":676,"ha":676,"o":"m 567 102 q 540 66 500 37 q 460 8 412 -8 q 365 -25 314 -27 q 263 -29 214 -12 q 166 4 124 42 q 83 79 54 142 q 22 212 12 282 q 2 353 11 420 q 20 486 46 546 q 71 607 110 657 q 148 707 198 745 q 247 783 304 804 q 358 825 408 822 q 457 818 497 800 q 537 782 567 754 q 597 725 612 695 q 641 639 658 568 q 676 496 674 418 q 672 340 647 259 q 622 178 567 102 z m 426 509 q 407 553 374 558 q 340 564 308 538 q 276 513 254 460 q 231 406 236 332 q 240 263 263 234 q 286 204 315 204 q 345 204 374 228 q 402 252 417 290 q 432 329 438 362 q 444 394 444 421 q 443 448 438 470 q 433 492 426 509 z"},"F":{"x_min":0,"x_max":546,"ha":546,"o":"m 37 775 l 590 815 l 559 555 l 307 545 l 296 467 l 506 480 l 520 270 l 309 257 l 299 1 l 44 -5 z"},"k":{"x_min":0,"x_max":578,"ha":578,"o":"m 29 795 l 256 813 l 236 391 l 238 391 l 333 594 l 554 576 l 424 324 l 574 93 l 366 -10 l 236 241 l 234 241 l 242 8 l 34 -10 z"},"u":{"x_min":0,"x_max":591,"ha":591,"o":"m 362 88 l 360 88 q 340 33 298 10 q 255 -13 198 -13 q 123 -13 76 32 q 30 76 30 161 l 30 581 l 253 599 l 247 229 q 246 205 258 194 q 269 184 293 184 q 313 184 326 194 q 338 204 337 228 l 331 581 l 561 599 l 546 4 l 362 -4 z"},"U":{"x_min":0,"x_max":644,"ha":644,"o":"m 618 790 q 624 637 626 544 q 629 451 630 401 q 631 351 631 335 q 631 319 631 319 q 632 258 622 202 q 612 146 586 100 q 559 55 514 22 q 468 -10 400 -23 q 296 -43 221 -27 q 146 -11 98 33 q 49 77 27 144 q 5 212 7 293 q 7 294 7 303 q 7 313 8 345 q 9 377 10 435 q 11 493 14 590 q 17 687 21 826 l 307 776 l 281 306 q 277 280 282 260 q 286 240 291 231 q 296 222 297 221 q 307 210 320 208 q 333 206 349 232 q 350 233 355 244 q 360 256 365 285 q 370 314 368 356 l 347 740 z"},"o":{"x_min":0,"x_max":617,"ha":617,"o":"m 623 344 q 633 275 616 216 q 600 156 564 110 q 527 65 472 36 q 418 6 351 -3 q 284 -12 223 1 q 162 14 114 48 q 66 81 34 134 q 2 186 -7 255 q -17 324 0 384 q 16 443 52 489 q 89 535 144 564 q 198 594 265 603 q 332 612 392 599 q 453 586 501 552 q 549 519 581 466 q 613 413 623 344 z m 203 259 q 220 220 257 208 q 294 196 341 216 q 387 236 404 270 q 422 305 406 344 q 389 382 352 394 q 315 407 269 387 q 222 367 204 332 q 187 297 203 259 z"},"N":{"x_min":0,"x_max":762,"ha":762,"o":"m 51 815 l 433 498 l 442 829 l 740 809 l 694 46 l 311 237 l 325 1 l 38 -17 z"},"+":{"x_min":0,"x_max":772,"ha":772,"o":"m 713 477 l 694 269 l 462 267 l 451 77 l 262 58 l 264 266 l 51 265 l 70 454 l 265 461 l 267 701 l 489 733 l 474 468 z"},"G":{"x_min":0,"x_max":815,"ha":815,"o":"m 587 496 q 573 530 542 546 q 512 561 474 561 q 437 561 397 545 q 357 529 324 500 q 291 471 270 429 q 248 387 248 334 q 247 285 264 256 q 280 226 306 213 q 331 200 362 202 q 393 203 423 216 q 453 230 478 252 q 502 275 514 304 l 372 277 l 388 438 l 824 493 q 833 430 818 368 q 804 307 778 256 q 753 205 725 164 q 697 124 678 103 q 660 82 658 80 q 622 44 570 17 q 519 -10 460 -24 q 401 -38 338 -36 q 275 -35 218 -14 q 161 6 112 48 q 64 90 34 157 q 0 232 -5 306 q -10 381 7 450 q 24 520 62 582 q 99 644 152 694 q 204 743 269 778 q 334 813 406 828 q 408 828 428 830 q 447 833 484 831 q 521 829 567 816 q 613 804 667 774 q 721 745 774 693 z"},"q":{"x_min":0,"x_max":637,"ha":637,"o":"m 382 -165 l 388 34 q 360 8 324 -1 q 289 -10 258 -10 q 196 -10 146 16 q 95 42 58 84 q 22 127 2 182 q -18 238 -18 298 q -18 354 1 408 q 20 463 54 506 q 89 549 138 576 q 188 602 248 602 q 296 602 330 586 q 365 569 397 534 l 397 602 l 605 584 l 594 -183 z m 401 345 q 393 362 378 374 q 364 385 346 390 q 327 395 305 393 q 283 391 261 380 q 216 359 200 322 q 185 284 201 250 q 217 217 256 206 q 294 194 339 215 q 385 237 401 274 q 417 312 401 345 z"},"d":{"x_min":0,"x_max":664,"ha":664,"o":"m 602 7 l 406 -6 l 406 51 l 404 51 q 380 19 338 4 q 297 -10 255 -10 q 204 -10 156 10 q 109 31 72 70 q 35 108 13 164 q -9 220 -9 291 q -9 355 10 412 q 28 468 63 510 q 98 553 150 578 q 201 602 267 602 q 300 602 331 594 q 362 585 385 565 l 376 803 l 606 821 z m 325 205 q 347 213 362 226 q 377 240 386 256 q 394 273 395 291 q 396 309 390 326 q 384 342 372 355 q 359 368 342 376 q 325 383 304 384 q 284 385 262 377 q 239 369 224 355 q 209 341 200 324 q 192 308 191 290 q 190 271 196 255 q 202 238 214 226 q 227 213 244 206 q 261 198 282 198 q 302 197 325 205 z"},"1":{"x_min":0,"x_max":518,"ha":518,"o":"m 95 488 l -3 614 l 194 801 l 470 829 l 432 -13 l 187 19 l 184 563 z"},"5":{"x_min":0,"x_max":571,"ha":571,"o":"m 219 539 q 273 554 333 549 q 393 544 444 520 q 495 496 530 454 q 565 412 569 352 q 569 351 569 330 q 569 310 562 275 q 554 240 536 200 q 518 160 482 120 q 447 81 390 51 q 334 21 249 6 q 164 -9 48 0 l 3 234 q 81 217 134 222 q 188 226 220 242 q 251 259 268 280 q 286 301 291 316 q 296 330 296 331 q 300 350 288 362 q 277 373 256 378 q 234 384 206 384 q 177 385 147 382 q 117 378 87 370 q 57 362 34 352 l 68 783 l 543 806 l 548 607 l 244 610 l 219 539 z"}}}
